<svg width="62" height="65" viewBox="0 0 62 65" fill="none" xmlns="http://www.w3.org/2000/svg">
<path d="M50.375 65H11.625C5.20413 65 0 59.5441 0 52.8125V12.1875C0 5.45594 5.20413 0 11.625 0H50.375C56.7959 0 62 5.45594 62 12.1875V52.8125C62 59.5441 56.7959 65 50.375 65Z" fill="#8EAFD2"/>
<path d="M43.5869 23.536C42.0228 21.9 39.943 21 37.7315 21C35.52 21 33.4403 21.9 31.8761 23.534L30.5 24.974L29.1239 23.536C27.5597 21.9 25.4819 21 23.2685 21C21.057 21 18.9772 21.9 17.4131 23.536C14.1956 26.902 14.1956 32.378 17.4131 35.74L29.81 48.702C29.9922 48.894 30.2403 49 30.5 49C30.7597 49 31.0078 48.894 31.19 48.702L43.5869 35.74C46.8044 32.376 46.8044 26.902 43.5869 23.536V23.536Z" fill="white"/>
</svg>
