<svg width="65" height="65" viewBox="0 0 65 65" fill="none" xmlns="http://www.w3.org/2000/svg">
<path d="M52.8125 65H12.1875C5.45594 65 0 59.5441 0 52.8125V12.1875C0 5.45594 5.45594 0 12.1875 0H52.8125C59.5441 0 65 5.45594 65 12.1875V52.8125C65 59.5441 59.5441 65 52.8125 65Z" fill="#8EAFD2"/>
<path d="M39.0626 17H25.9374C23.7659 17 22 18.7379 22 20.875V44.125C22 46.2621 23.7659 48 25.9374 48H39.0626C41.2341 48 43 46.2621 43 44.125V20.875C43 18.7379 41.2341 17 39.0626 17ZM25.9393 19.5827H39.0646C39.7871 19.5827 40.3757 20.162 40.3757 20.875V41.5423H24.6262V20.875C24.6262 20.162 25.2149 19.5827 25.9393 19.5827V19.5827Z" fill="white"/>
<path d="M36.9721 23H28.0279C26.9106 23 26 23.8896 26 24.9853V35.0147C26 36.1104 26.9087 37 28.0279 37H34.3592C34.9462 37 35.4999 36.7767 35.9172 36.3681L38.3546 33.982C38.766 33.5811 39 33.0256 39 32.4568V24.9853C38.998 23.8915 38.0894 23 36.9721 23V23ZM35.8724 28.3698L32.2611 32.5465C32.0759 32.7603 31.8049 32.8844 31.5163 32.8844C31.1867 32.8576 30.9528 32.7584 30.7675 32.5427L29.1218 30.6147C28.7767 30.21 28.8313 29.6087 29.2446 29.2708C29.658 28.9329 30.2722 28.9883 30.6174 29.3911L31.5202 30.4486L34.3826 27.1385C34.7297 26.7358 35.3459 26.6842 35.7554 27.0259C36.1687 27.3657 36.2194 27.967 35.8724 28.3698V28.3698Z" fill="white"/>
</svg>
