<svg width="65" height="65" viewBox="0 0 65 65" fill="none" xmlns="http://www.w3.org/2000/svg">
<path d="M52.8125 65H12.1875C5.45594 65 0 59.5441 0 52.8125V12.1875C0 5.45594 5.45594 0 12.1875 0H52.8125C59.5441 0 65 5.45594 65 12.1875V52.8125C65 59.5441 59.5441 65 52.8125 65Z" fill="#8EAFD2"/>
<path d="M47.6243 45.2507H18.7493V16.3757C18.7493 15.6146 18.1347 15 17.3757 15C16.6167 15 16 15.6146 16 16.3757V45.2507C16 46.7666 17.2334 48 18.7493 48H47.6243C48.3854 48 49 47.3854 49 46.6243C49 45.8633 48.3854 45.2507 47.6243 45.2507V45.2507Z" fill="white"/>
<path d="M24.0355 40.9796H27.4216C28.7277 40.9796 29.7921 39.9172 29.7921 38.6091V31.1605C29.7921 29.8544 28.7297 28.79 27.4216 28.79H24.0355C22.7294 28.79 21.665 29.8524 21.665 31.1605V38.6091C21.6671 39.9152 22.7294 40.9796 24.0355 40.9796Z" fill="white"/>
<path d="M33.516 40.9796H36.9021C38.2082 40.9796 39.2725 39.9172 39.2725 38.6091V27.098C39.2725 25.7919 38.2102 24.7275 36.9021 24.7275H33.516C32.2099 24.7275 31.1455 25.7899 31.1455 27.098V38.6091C31.1455 39.9152 32.2099 40.9796 33.516 40.9796Z" fill="white"/>
<path d="M46.3795 19.3125H42.9934C41.6873 19.3125 40.625 20.3748 40.625 21.683V38.6094C40.625 39.9155 41.6873 40.9798 42.9955 40.9798H46.3816C47.6877 40.9798 48.752 39.9175 48.752 38.6094V21.683C48.75 20.3748 47.6877 19.3125 46.3795 19.3125V19.3125Z" fill="white"/>
</svg>
