<svg width="43" height="43" viewBox="0 0 43 43" fill="none" xmlns="http://www.w3.org/2000/svg">
<path d="M21.098 42.196C32.7501 42.196 42.196 32.7501 42.196 21.098C42.196 9.4459 32.7501 0 21.098 0C9.4459 0 0 9.4459 0 21.098C0 32.7501 9.4459 42.196 21.098 42.196Z" fill="#8EAFD2"/>
<path fill-rule="evenodd" clip-rule="evenodd" d="M20.5541 30.3514H22.2101C22.2101 30.3514 22.7103 30.2965 22.9656 30.0212C23.2007 29.7685 23.1932 29.2939 23.1932 29.2939C23.1932 29.2939 23.1608 27.0719 24.1921 26.7447C25.2087 26.4224 26.5141 28.8922 27.8977 29.8418C28.944 30.5605 29.7391 30.403 29.7391 30.403L33.4387 30.3514C33.4387 30.3514 35.374 30.2322 34.4564 28.7105C34.3812 28.5861 33.922 27.5849 31.7056 25.5277C29.3859 23.3745 29.6966 23.7228 32.4909 19.9984C34.1927 17.7302 34.8731 16.3454 34.6606 15.7523C34.4579 15.1874 33.2063 15.3367 33.2063 15.3367L29.0407 15.3627C29.0407 15.3627 28.7319 15.3205 28.5028 15.4574C28.2791 15.5917 28.135 15.9046 28.135 15.9046C28.135 15.9046 27.4757 17.6598 26.5964 19.1525C24.7416 22.3023 23.9999 22.4685 23.6968 22.273C22.9916 21.8172 23.1676 20.4418 23.1676 19.4647C23.1676 16.4123 23.6306 15.1396 22.2661 14.8102C21.8133 14.7007 21.4801 14.6285 20.3221 14.6169C18.8358 14.6015 17.5778 14.6214 16.8654 14.9704C16.3916 15.2024 16.026 15.7196 16.2486 15.7493C16.5239 15.7861 17.1475 15.9174 17.4781 16.3676C17.905 16.9483 17.8899 18.2526 17.8899 18.2526C17.8899 18.2526 18.1351 21.8457 17.3171 22.2922C16.7556 22.5983 15.9854 21.9732 14.3317 19.1157C13.4844 17.6519 12.8446 16.034 12.8446 16.034C12.8446 16.034 12.7213 15.7316 12.5013 15.5699C12.2342 15.3739 11.8612 15.3115 11.8612 15.3115L7.9028 15.3375C7.9028 15.3375 7.30857 15.354 7.09044 15.6124C6.89637 15.8422 7.07502 16.3176 7.07502 16.3176C7.07502 16.3176 10.174 23.5679 13.683 27.2216C16.9004 30.5714 20.5541 30.3514 20.5541 30.3514Z" fill="white"/>
</svg>
